G04 #@! TF.GenerationSoftware,KiCad,Pcbnew,5.1.9+dfsg1-1*
G04 #@! TF.CreationDate,2022-04-23T14:02:49+01:00*
G04 #@! TF.ProjectId,ds_lite_usb_c_revb,64735f6c-6974-4655-9f75-73625f635f72,rev?*
G04 #@! TF.SameCoordinates,Original*
G04 #@! TF.FileFunction,Legend,Bot*
G04 #@! TF.FilePolarity,Positive*
%FSLAX46Y46*%
G04 Gerber Fmt 4.6, Leading zero omitted, Abs format (unit mm)*
G04 Created by KiCad (PCBNEW 5.1.9+dfsg1-1) date 2022-04-23 14:02:49*
%MOMM*%
%LPD*%
G01*
G04 APERTURE LIST*
%ADD10C,0.250000*%
G04 APERTURE END LIST*
D10*
X151101157Y-73391780D02*
X151101157Y-74201304D01*
X151053538Y-74296542D01*
X151005919Y-74344161D01*
X150910680Y-74391780D01*
X150720204Y-74391780D01*
X150624966Y-74344161D01*
X150577347Y-74296542D01*
X150529728Y-74201304D01*
X150529728Y-73391780D01*
X150101157Y-74344161D02*
X149958300Y-74391780D01*
X149720204Y-74391780D01*
X149624966Y-74344161D01*
X149577347Y-74296542D01*
X149529728Y-74201304D01*
X149529728Y-74106066D01*
X149577347Y-74010828D01*
X149624966Y-73963209D01*
X149720204Y-73915590D01*
X149910680Y-73867971D01*
X150005919Y-73820352D01*
X150053538Y-73772733D01*
X150101157Y-73677495D01*
X150101157Y-73582257D01*
X150053538Y-73487019D01*
X150005919Y-73439400D01*
X149910680Y-73391780D01*
X149672585Y-73391780D01*
X149529728Y-73439400D01*
X148767823Y-73867971D02*
X148624966Y-73915590D01*
X148577347Y-73963209D01*
X148529728Y-74058447D01*
X148529728Y-74201304D01*
X148577347Y-74296542D01*
X148624966Y-74344161D01*
X148720204Y-74391780D01*
X149101157Y-74391780D01*
X149101157Y-73391780D01*
X148767823Y-73391780D01*
X148672585Y-73439400D01*
X148624966Y-73487019D01*
X148577347Y-73582257D01*
X148577347Y-73677495D01*
X148624966Y-73772733D01*
X148672585Y-73820352D01*
X148767823Y-73867971D01*
X149101157Y-73867971D01*
X148339252Y-74487019D02*
X147577347Y-74487019D01*
X146767823Y-74296542D02*
X146815442Y-74344161D01*
X146958300Y-74391780D01*
X147053538Y-74391780D01*
X147196395Y-74344161D01*
X147291633Y-74248923D01*
X147339252Y-74153685D01*
X147386871Y-73963209D01*
X147386871Y-73820352D01*
X147339252Y-73629876D01*
X147291633Y-73534638D01*
X147196395Y-73439400D01*
X147053538Y-73391780D01*
X146958300Y-73391780D01*
X146815442Y-73439400D01*
X146767823Y-73487019D01*
X151066190Y-72461380D02*
X151066190Y-71461380D01*
X150828095Y-71461380D01*
X150685238Y-71509000D01*
X150590000Y-71604238D01*
X150542380Y-71699476D01*
X150494761Y-71889952D01*
X150494761Y-72032809D01*
X150542380Y-72223285D01*
X150590000Y-72318523D01*
X150685238Y-72413761D01*
X150828095Y-72461380D01*
X151066190Y-72461380D01*
X150113809Y-72413761D02*
X149970952Y-72461380D01*
X149732857Y-72461380D01*
X149637619Y-72413761D01*
X149590000Y-72366142D01*
X149542380Y-72270904D01*
X149542380Y-72175666D01*
X149590000Y-72080428D01*
X149637619Y-72032809D01*
X149732857Y-71985190D01*
X149923333Y-71937571D01*
X150018571Y-71889952D01*
X150066190Y-71842333D01*
X150113809Y-71747095D01*
X150113809Y-71651857D01*
X150066190Y-71556619D01*
X150018571Y-71509000D01*
X149923333Y-71461380D01*
X149685238Y-71461380D01*
X149542380Y-71509000D01*
X149351904Y-72556619D02*
X148590000Y-72556619D01*
X147875714Y-72461380D02*
X148351904Y-72461380D01*
X148351904Y-71461380D01*
X147542380Y-72461380D02*
X147542380Y-71794714D01*
X147542380Y-71461380D02*
X147590000Y-71509000D01*
X147542380Y-71556619D01*
X147494761Y-71509000D01*
X147542380Y-71461380D01*
X147542380Y-71556619D01*
X147209047Y-71794714D02*
X146828095Y-71794714D01*
X147066190Y-71461380D02*
X147066190Y-72318523D01*
X147018571Y-72413761D01*
X146923333Y-72461380D01*
X146828095Y-72461380D01*
X146113809Y-72413761D02*
X146209047Y-72461380D01*
X146399523Y-72461380D01*
X146494761Y-72413761D01*
X146542380Y-72318523D01*
X146542380Y-71937571D01*
X146494761Y-71842333D01*
X146399523Y-71794714D01*
X146209047Y-71794714D01*
X146113809Y-71842333D01*
X146066190Y-71937571D01*
X146066190Y-72032809D01*
X146542380Y-72128047D01*
X149258257Y-70235771D02*
X149591590Y-70235771D01*
X149591590Y-70759580D02*
X149591590Y-69759580D01*
X149115400Y-69759580D01*
X148258257Y-70759580D02*
X148734447Y-70759580D01*
X148734447Y-69759580D01*
X148067780Y-69759580D02*
X147496352Y-69759580D01*
X147782066Y-70759580D02*
X147782066Y-69759580D01*
M02*
