G04 #@! TF.GenerationSoftware,KiCad,Pcbnew,5.1.9+dfsg1-1*
G04 #@! TF.CreationDate,2022-04-23T14:02:49+01:00*
G04 #@! TF.ProjectId,ds_lite_usb_c_revb,64735f6c-6974-4655-9f75-73625f635f72,rev?*
G04 #@! TF.SameCoordinates,Original*
G04 #@! TF.FileFunction,Soldermask,Top*
G04 #@! TF.FilePolarity,Negative*
%FSLAX46Y46*%
G04 Gerber Fmt 4.6, Leading zero omitted, Abs format (unit mm)*
G04 Created by KiCad (PCBNEW 5.1.9+dfsg1-1) date 2022-04-23 14:02:49*
%MOMM*%
%LPD*%
G01*
G04 APERTURE LIST*
%ADD10O,1.602000X1.102000*%
%ADD11C,1.602000*%
G04 APERTURE END LIST*
D10*
X146979640Y-76017120D03*
X150484840Y-76022200D03*
G36*
G01*
X154687960Y-77445760D02*
X154687960Y-77971760D01*
G75*
G02*
X154424960Y-78234760I-263000J0D01*
G01*
X153798960Y-78234760D01*
G75*
G02*
X153535960Y-77971760I0J263000D01*
G01*
X153535960Y-77445760D01*
G75*
G02*
X153798960Y-77182760I263000J0D01*
G01*
X154424960Y-77182760D01*
G75*
G02*
X154687960Y-77445760I0J-263000D01*
G01*
G37*
G36*
G01*
X152937960Y-77445760D02*
X152937960Y-77971760D01*
G75*
G02*
X152674960Y-78234760I-263000J0D01*
G01*
X152048960Y-78234760D01*
G75*
G02*
X151785960Y-77971760I0J263000D01*
G01*
X151785960Y-77445760D01*
G75*
G02*
X152048960Y-77182760I263000J0D01*
G01*
X152674960Y-77182760D01*
G75*
G02*
X152937960Y-77445760I0J-263000D01*
G01*
G37*
G36*
G01*
X154694280Y-75921760D02*
X154694280Y-76447760D01*
G75*
G02*
X154431280Y-76710760I-263000J0D01*
G01*
X153880280Y-76710760D01*
G75*
G02*
X153617280Y-76447760I0J263000D01*
G01*
X153617280Y-75921760D01*
G75*
G02*
X153880280Y-75658760I263000J0D01*
G01*
X154431280Y-75658760D01*
G75*
G02*
X154694280Y-75921760I0J-263000D01*
G01*
G37*
G36*
G01*
X152869280Y-75921760D02*
X152869280Y-76447760D01*
G75*
G02*
X152606280Y-76710760I-263000J0D01*
G01*
X152055280Y-76710760D01*
G75*
G02*
X151792280Y-76447760I0J263000D01*
G01*
X151792280Y-75921760D01*
G75*
G02*
X152055280Y-75658760I263000J0D01*
G01*
X152606280Y-75658760D01*
G75*
G02*
X152869280Y-75921760I0J-263000D01*
G01*
G37*
G36*
G01*
X147692100Y-75108500D02*
X147692100Y-73608500D01*
G75*
G02*
X147743100Y-73557500I51000J0D01*
G01*
X148243100Y-73557500D01*
G75*
G02*
X148294100Y-73608500I0J-51000D01*
G01*
X148294100Y-75108500D01*
G75*
G02*
X148243100Y-75159500I-51000J0D01*
G01*
X147743100Y-75159500D01*
G75*
G02*
X147692100Y-75108500I0J51000D01*
G01*
G37*
G36*
G01*
X148708100Y-75113580D02*
X148708100Y-73613580D01*
G75*
G02*
X148759100Y-73562580I51000J0D01*
G01*
X149259100Y-73562580D01*
G75*
G02*
X149310100Y-73613580I0J-51000D01*
G01*
X149310100Y-75113580D01*
G75*
G02*
X149259100Y-75164580I-51000J0D01*
G01*
X148759100Y-75164580D01*
G75*
G02*
X148708100Y-75113580I0J51000D01*
G01*
G37*
G36*
G01*
X149719020Y-75113580D02*
X149719020Y-73613580D01*
G75*
G02*
X149770020Y-73562580I51000J0D01*
G01*
X150270020Y-73562580D01*
G75*
G02*
X150321020Y-73613580I0J-51000D01*
G01*
X150321020Y-75113580D01*
G75*
G02*
X150270020Y-75164580I-51000J0D01*
G01*
X149770020Y-75164580D01*
G75*
G02*
X149719020Y-75113580I0J51000D01*
G01*
G37*
G36*
G01*
X146671020Y-75103420D02*
X146671020Y-73603420D01*
G75*
G02*
X146722020Y-73552420I51000J0D01*
G01*
X147222020Y-73552420D01*
G75*
G02*
X147273020Y-73603420I0J-51000D01*
G01*
X147273020Y-75103420D01*
G75*
G02*
X147222020Y-75154420I-51000J0D01*
G01*
X146722020Y-75154420D01*
G75*
G02*
X146671020Y-75103420I0J51000D01*
G01*
G37*
G36*
G01*
X150898380Y-75113580D02*
X150898380Y-73613580D01*
G75*
G02*
X150949380Y-73562580I51000J0D01*
G01*
X151549380Y-73562580D01*
G75*
G02*
X151600380Y-73613580I0J-51000D01*
G01*
X151600380Y-75113580D01*
G75*
G02*
X151549380Y-75164580I-51000J0D01*
G01*
X150949380Y-75164580D01*
G75*
G02*
X150898380Y-75113580I0J51000D01*
G01*
G37*
G36*
G01*
X145391660Y-75103420D02*
X145391660Y-73603420D01*
G75*
G02*
X145442660Y-73552420I51000J0D01*
G01*
X146042660Y-73552420D01*
G75*
G02*
X146093660Y-73603420I0J-51000D01*
G01*
X146093660Y-75103420D01*
G75*
G02*
X146042660Y-75154420I-51000J0D01*
G01*
X145442660Y-75154420D01*
G75*
G02*
X145391660Y-75103420I0J51000D01*
G01*
G37*
D11*
X152819100Y-74104500D03*
X144183100Y-74104500D03*
X144183100Y-70307200D03*
X152819100Y-70307200D03*
M02*
